<?xml version="1.0" encoding="UTF-8"?>
<!DOCTYPE svg PUBLIC "-//W3C//DTD SVG 1.1//EN" "http://www.w3.org/Graphics/SVG/1.1/DTD/svg11.dtd">
<!-- Creator: CorelDRAW X8 -->
<svg xmlns="http://www.w3.org/2000/svg" xml:space="preserve" width="100%" height="100%" version="1.1" style="shape-rendering:geometricPrecision; text-rendering:geometricPrecision; image-rendering:optimizeQuality; fill-rule:evenodd; clip-rule:evenodd"
viewBox="0 0 2362205 319798"
 xmlns:xlink="http://www.w3.org/1999/xlink">
 <defs>
  <style type="text/css">
   <![CDATA[
    .fil0 {fill:#2C3E50}
   ]]>
  </style>
 </defs>
 <g id="Layer_x0020_1">
  <metadata id="CorelCorpID_0Corel-Layer"/>
  <g id="_2279813289024">
   <rect class="fil0" y="140351" width="924639" height="39096"/>
   <rect class="fil0" x="1437566" y="140351" width="924639" height="39096"/>
  </g>
  <path class="fil0" d="M1190106 5574l43383 86870c1475,2957 4023,4849 7271,5421l93211 16365c3742,647 6614,3127 7816,6733 1202,3606 383,7304 -2216,10074l-66712 70983c-2165,2310 -3077,5182 -2634,8319l13953 97933c545,3828 -998,7399 -4151,9632 -3154,2242 -7032,2506 -10458,724l-83819 -43571c-3000,-1560 -6282,-1560 -9291,0l-83818 43571c-3435,1782 -7304,1518 -10467,-724 -3153,-2233 -4687,-5804 -4142,-9632l13953 -97924c443,-3128 -469,-6009 -2634,-8311l-66721 -70999c-2600,-2770 -3410,-6469 -2216,-10075 1202,-3605 4074,-6085 7816,-6733l93202 -16356c3256,-572 5796,-2472 7271,-5421l43392 -86879c1748,-3503 5097,-5574 9001,-5574 3912,0 7262,2071 9009,5574l1 0z"/>
 </g>
</svg>
