<?xml version="1.0" encoding="UTF-8"?>
<!DOCTYPE svg PUBLIC "-//W3C//DTD SVG 1.1//EN" "http://www.w3.org/Graphics/SVG/1.1/DTD/svg11.dtd">
<!-- Creator: CorelDRAW X8 -->
<svg xmlns="http://www.w3.org/2000/svg" xml:space="preserve" width="100%" height="100%" version="1.1" style="shape-rendering:geometricPrecision; text-rendering:geometricPrecision; image-rendering:optimizeQuality; fill-rule:evenodd; clip-rule:evenodd"
viewBox="0 0 277145 37520"
 xmlns:xlink="http://www.w3.org/1999/xlink">
 <defs>
  <style type="text/css">
   <![CDATA[
    .fil0 {fill:#FEFEFE}
   ]]>
  </style>
 </defs>
 <g id="Layer_x0020_1">
  <metadata id="CorelCorpID_0Corel-Layer"/>
  <g id="_2279813289024">
   <rect class="fil0" y="16466" width="108483" height="4587"/>
   <rect class="fil0" x="168662" y="16466" width="108483" height="4587"/>
  </g>
  <path class="fil0" d="M139629 654l5090 10192c173,347 472,569 853,636l10936 1920c439,76 776,367 917,790 141,423 45,857 -260,1182l-7827 8328c-254,271 -361,608 -309,976l1637 11490c64,449 -117,868 -487,1130 -370,263 -825,294 -1227,85l-9834 -5112c-352,-183 -737,-183 -1090,0l-9834 5112c-403,209 -857,178 -1228,-85 -370,-262 -550,-681 -486,-1130l1637 -11489c52,-367 -55,-705 -309,-975l-7828 -8330c-305,-325 -400,-759 -260,-1182 141,-423 478,-714 917,-790l10935 -1919c382,-67 680,-290 853,-636l5091 -10193c205,-411 598,-654 1056,-654 459,0 852,243 1057,654z"/>
 </g>
</svg>
